<svg width="809" height="837" viewBox="0 0 809 837" fill="none" xmlns="http://www.w3.org/2000/svg">
<path fill-rule="evenodd" clip-rule="evenodd" d="M0 0V385.454H237.302C267.889 385.454 293.904 381.4 315.351 373.293C337.148 365.184 353.671 353.2 364.923 337.338C376.525 321.123 382.325 301.207 382.325 277.59C382.325 261.022 379.337 246.57 373.36 234.233C367.735 221.544 359.297 211.144 348.047 203.038C336.796 194.929 323.085 189.642 306.913 187.175V182.945C320.272 180.124 331.699 174.837 341.191 167.083C350.684 159.328 357.89 149.635 362.813 138.002C368.087 126.017 370.724 112.975 370.724 98.8748C370.724 78.4302 366.153 60.8054 357.012 46.0006C348.222 31.1958 334.336 19.916 315.351 12.1611C296.717 4.05369 272.283 0 242.048 0H0ZM221.481 321.476H91.7605V218.9H224.118C245.915 218.9 262.263 223.13 273.162 231.59C284.412 239.697 290.038 252.211 290.038 269.13C290.038 284.64 284.764 297.33 274.217 307.2C263.67 316.717 246.09 321.476 221.481 321.476ZM220.426 157.566H91.7605V63.9778H217.789C236.422 63.9778 251.364 67.679 262.615 75.0814C273.865 82.4838 279.49 94.2925 279.49 110.507C279.49 120.025 277.556 128.308 273.689 135.358C269.821 142.408 263.493 147.871 254.705 151.75C246.267 155.627 234.84 157.566 220.426 157.566ZM2.24746e-05 535.2V451.547H361.23V531.945L361.231 531.943V621.248L8.68737 753.346H361.23V837H2.24746e-05V756.602V667.297L352.542 535.2H2.24746e-05ZM516.988 0H598.072H603.799H684.883L809 385.454H722.189L696.899 306.917H504.972L479.684 385.454H392.873L516.988 0ZM675.872 241.616L600.936 8.89199L525.999 241.616H675.872ZM598.072 451.547H516.988L392.873 837H479.684L504.972 758.463H696.899L722.189 837H809L684.883 451.547H603.799H598.072ZM600.936 460.439L675.872 693.162H525.999L600.936 460.439Z" fill="white"/>
</svg>
